<?xml version="1.0" encoding="UTF-8"?>
<svg version="1.1" xmlns="http://www.w3.org/2000/svg" width="500" height="500">
<path d="M0 0 C165 0 330 0 500 0 C500 165 500 330 500 500 C335 500 170 500 0 500 C0 335 0 170 0 0 Z " fill="#FEFEFE" transform="translate(0,0)"/>
<path d="M0 0 C1.05316803 -0.00913666 1.05316803 -0.00913666 2.12761217 -0.01845789 C4.48608134 -0.03513983 6.84401368 -0.03030488 9.20252991 -0.0255127 C10.8910478 -0.03285003 12.57956067 -0.04143527 14.26806641 -0.05117798 C18.85896425 -0.07343791 23.44968284 -0.07632244 28.04062724 -0.07443047 C31.87030787 -0.07431097 35.69995022 -0.08286639 39.52962023 -0.09120798 C48.56286857 -0.11045811 57.59602449 -0.11331999 66.62928772 -0.10656738 C75.95489648 -0.09992465 85.28010989 -0.12279654 94.60563844 -0.15988111 C102.60656773 -0.19054624 110.60736963 -0.20194163 118.60835654 -0.1980443 C123.38950693 -0.19597353 128.17034975 -0.20150639 132.95144463 -0.22593689 C137.44709992 -0.24814907 141.94211108 -0.2463727 146.43776894 -0.22600937 C148.08896761 -0.22258949 149.74020918 -0.2277304 151.39134979 -0.24199295 C153.64357436 -0.26010725 155.89359542 -0.2474987 158.14575195 -0.22705078 C160.03695723 -0.22811954 160.03695723 -0.22811954 161.96636868 -0.2292099 C165.1363678 0.39440918 165.1363678 0.39440918 167.54321766 2.66551495 C169.11548758 5.35864361 169.63322699 6.62479901 169.61738586 9.67817688 C169.62288452 10.50122314 169.62838318 11.32426941 169.63404846 12.17225647 C169.61247681 13.50582436 169.61247681 13.50582436 169.59046936 14.86633301 C169.59105347 15.81315948 169.59163757 16.75998596 169.59223938 17.73550415 C169.58945781 20.85785884 169.55836179 23.97925299 169.5269928 27.10144043 C169.51953068 29.26905292 169.51383761 31.43667217 169.50984192 33.60429382 C169.49458338 39.30413501 169.45529923 45.00356725 169.411026 50.70324707 C169.3700783 56.52146879 169.35183194 62.33975671 169.3316803 68.15808105 C169.28880556 79.57036991 169.22055121 90.98235551 169.1363678 102.39440918 C173.7563678 102.39440918 178.3763678 102.39440918 183.1363678 102.39440918 C183.1363678 109.50280138 181.38777845 113.69637618 176.7144928 119.01159668 C171.19665973 124.02511168 164.76432517 124.64327982 157.59085083 124.66183472 C156.86364206 124.66636583 156.1364333 124.67089694 155.3871879 124.67556536 C152.96765917 124.68815409 150.54835714 124.68659262 148.12879944 124.68493652 C146.38707187 124.69092512 144.64534695 124.69773143 142.90362549 124.70529175 C138.18463082 124.72292247 133.46570873 124.72764582 128.74668431 124.72892332 C125.79622793 124.73034682 122.84578988 124.73462014 119.89533806 124.73991776 C109.59619351 124.75840641 99.29710066 124.76658958 88.99794006 124.76501465 C79.40655062 124.76381268 69.81538599 124.78492889 60.22405344 124.81650198 C51.98010803 124.84267008 43.73623605 124.85338176 35.49224943 124.85210383 C30.57246102 124.85159447 25.65287262 124.85726353 20.73312569 124.87845993 C16.10616905 124.89785199 11.4796031 124.89796019 6.85263252 124.88342667 C5.15795825 124.88133887 3.46325946 124.88603778 1.76862717 124.89814758 C-15.61560165 125.01429708 -15.61560165 125.01429708 -22.8870697 118.61315918 C-23.55609314 117.76237793 -23.55609314 117.76237793 -24.2386322 116.89440918 C-24.93085876 116.04362793 -24.93085876 116.04362793 -25.6370697 115.17565918 C-28.68768725 110.74546299 -28.8636322 109.24733933 -28.8636322 103.39440918 C-22.5936322 103.39440918 -16.3236322 103.39440918 -9.8636322 103.39440918 C-9.87934265 100.38082275 -9.8950531 97.36723633 -9.91123962 94.2623291 C-9.96088704 84.31981916 -9.99406179 74.37730382 -10.01906872 64.43470287 C-10.0347432 58.40484768 -10.05601412 52.37511918 -10.08995056 46.34533691 C-10.12248024 40.52929242 -10.14047178 34.71337001 -10.14826393 28.89724159 C-10.15381893 26.67520538 -10.16466608 24.45317605 -10.18082237 22.23119164 C-10.20251149 19.12553699 -10.20560268 16.0203907 -10.20420837 12.91467285 C-10.2149942 11.99038483 -10.22578003 11.0660968 -10.2368927 10.11380005 C-10.23276871 9.26826065 -10.22864471 8.42272125 -10.22439575 7.55155945 C-10.22716113 6.81689044 -10.22992651 6.08222143 -10.23277569 5.32528973 C-9.8636322 3.39440918 -9.8636322 3.39440918 -8.77006149 1.65923786 C-5.8771548 -0.26007348 -3.44762682 0.0101991 0 0 Z " fill="#FEFEFE" transform="translate(172.86363220214844,138.6055908203125)"/>
<path d="M0 0 C1.05316803 -0.00913666 1.05316803 -0.00913666 2.12761217 -0.01845789 C4.48608134 -0.03513983 6.84401368 -0.03030488 9.20252991 -0.0255127 C10.8910478 -0.03285003 12.57956067 -0.04143527 14.26806641 -0.05117798 C18.85896425 -0.07343791 23.44968284 -0.07632244 28.04062724 -0.07443047 C31.87030787 -0.07431097 35.69995022 -0.08286639 39.52962023 -0.09120798 C48.56286857 -0.11045811 57.59602449 -0.11331999 66.62928772 -0.10656738 C75.95489648 -0.09992465 85.28010989 -0.12279654 94.60563844 -0.15988111 C102.60656773 -0.19054624 110.60736963 -0.20194163 118.60835654 -0.1980443 C123.38950693 -0.19597353 128.17034975 -0.20150639 132.95144463 -0.22593689 C137.44709992 -0.24814907 141.94211108 -0.2463727 146.43776894 -0.22600937 C148.08896761 -0.22258949 149.74020918 -0.2277304 151.39134979 -0.24199295 C153.64357436 -0.26010725 155.89359542 -0.2474987 158.14575195 -0.22705078 C160.03695723 -0.22811954 160.03695723 -0.22811954 161.96636868 -0.2292099 C165.1363678 0.39440918 165.1363678 0.39440918 167.54321766 2.66551495 C169.11548758 5.35864361 169.63322699 6.62479901 169.61738586 9.67817688 C169.62288452 10.50122314 169.62838318 11.32426941 169.63404846 12.17225647 C169.61247681 13.50582436 169.61247681 13.50582436 169.59046936 14.86633301 C169.59105347 15.81315948 169.59163757 16.75998596 169.59223938 17.73550415 C169.58945781 20.85785884 169.55836179 23.97925299 169.5269928 27.10144043 C169.51953068 29.26905292 169.51383761 31.43667217 169.50984192 33.60429382 C169.49458338 39.30413501 169.45529923 45.00356725 169.411026 50.70324707 C169.3700783 56.52146879 169.35183194 62.33975671 169.3316803 68.15808105 C169.28880556 79.57036991 169.22055121 90.98235551 169.1363678 102.39440918 C173.7563678 102.39440918 178.3763678 102.39440918 183.1363678 102.39440918 C183.1363678 109.50280138 181.38777845 113.69637618 176.7144928 119.01159668 C171.19665973 124.02511168 164.76432517 124.64327982 157.59085083 124.66183472 C156.86364206 124.66636583 156.1364333 124.67089694 155.3871879 124.67556536 C152.96765917 124.68815409 150.54835714 124.68659262 148.12879944 124.68493652 C146.38707187 124.69092512 144.64534695 124.69773143 142.90362549 124.70529175 C138.18463082 124.72292247 133.46570873 124.72764582 128.74668431 124.72892332 C125.79622793 124.73034682 122.84578988 124.73462014 119.89533806 124.73991776 C109.59619351 124.75840641 99.29710066 124.76658958 88.99794006 124.76501465 C79.40655062 124.76381268 69.81538599 124.78492889 60.22405344 124.81650198 C51.98010803 124.84267008 43.73623605 124.85338176 35.49224943 124.85210383 C30.57246102 124.85159447 25.65287262 124.85726353 20.73312569 124.87845993 C16.10616905 124.89785199 11.4796031 124.89796019 6.85263252 124.88342667 C5.15795825 124.88133887 3.46325946 124.88603778 1.76862717 124.89814758 C-15.61560165 125.01429708 -15.61560165 125.01429708 -22.8870697 118.61315918 C-23.55609314 117.76237793 -23.55609314 117.76237793 -24.2386322 116.89440918 C-24.93085876 116.04362793 -24.93085876 116.04362793 -25.6370697 115.17565918 C-28.68768725 110.74546299 -28.8636322 109.24733933 -28.8636322 103.39440918 C-22.5936322 103.39440918 -16.3236322 103.39440918 -9.8636322 103.39440918 C-9.87934265 100.38082275 -9.8950531 97.36723633 -9.91123962 94.2623291 C-9.96088704 84.31981916 -9.99406179 74.37730382 -10.01906872 64.43470287 C-10.0347432 58.40484768 -10.05601412 52.37511918 -10.08995056 46.34533691 C-10.12248024 40.52929242 -10.14047178 34.71337001 -10.14826393 28.89724159 C-10.15381893 26.67520538 -10.16466608 24.45317605 -10.18082237 22.23119164 C-10.20251149 19.12553699 -10.20560268 16.0203907 -10.20420837 12.91467285 C-10.2149942 11.99038483 -10.22578003 11.0660968 -10.2368927 10.11380005 C-10.23276871 9.26826065 -10.22864471 8.42272125 -10.22439575 7.55155945 C-10.22716113 6.81689044 -10.22992651 6.08222143 -10.23277569 5.32528973 C-9.8636322 3.39440918 -9.8636322 3.39440918 -8.77006149 1.65923786 C-5.8771548 -0.26007348 -3.44762682 0.0101991 0 0 Z M1.27823448 13.70278835 C-0.66377006 16.57977512 -0.2789749 19.84598637 -0.2518158 23.19885254 C-0.25707275 23.99265823 -0.26232971 24.78646393 -0.26774597 25.60432434 C-0.28096115 28.23116676 -0.27220187 30.85740423 -0.2620697 33.48425293 C-0.26409021 35.30884416 -0.26700145 37.13343461 -0.27076721 38.95802307 C-0.27519278 42.78382041 -0.26875279 46.60940772 -0.25474548 50.43518066 C-0.23766554 55.3392585 -0.2474857 60.24284336 -0.26546288 65.14690304 C-0.27630477 68.91557019 -0.2728523 72.68412054 -0.2650795 76.45279121 C-0.26307798 78.26090109 -0.26553506 80.06902157 -0.27251816 81.87711906 C-0.28013798 84.40522199 -0.26852082 86.93252772 -0.2518158 89.46057129 C-0.25788849 90.20823761 -0.26396118 90.95590393 -0.2702179 91.72622681 C-0.2342164 94.66748451 -0.09307888 96.95402492 1.27823448 99.58603001 C3.90537649 102.14282657 5.61825079 101.89743169 9.24745178 101.90234375 C11.16556168 101.9192627 11.16556168 101.9192627 13.12242126 101.93652344 C14.54243695 101.92874595 15.9624504 101.92055325 17.38246155 101.9119873 C18.87556135 101.91740648 20.36865582 101.924528 21.86174011 101.93322754 C25.91961866 101.95148843 29.97709117 101.94438218 34.03497696 101.9317112 C38.27768819 101.92159774 42.52036421 101.93097226 46.76307678 101.93725586 C53.88854731 101.94453711 61.01385211 101.9349321 68.13929749 101.91589355 C76.38222376 101.89412381 84.62475433 101.90117485 92.86767101 101.92319918 C99.93951656 101.94133963 107.01124284 101.94391817 114.08310413 101.9334445 C118.30916647 101.92720207 122.53504269 101.92639437 126.76109314 101.93959045 C130.73388608 101.95112876 134.70616788 101.94316082 138.67890549 101.92001343 C140.13861618 101.91471543 141.59836975 101.91625876 143.05806351 101.92506409 C145.04712153 101.93595825 147.03627333 101.91988808 149.02528381 101.90234375 C150.13952225 101.90083565 151.25376068 101.89932755 152.40176392 101.89777374 C155.22926352 101.63939204 155.22926352 101.63939204 156.99450111 99.58603001 C158.705413 96.30222273 158.55391679 93.07602185 158.52455139 89.46057129 C158.52980835 88.66501328 158.53506531 87.86945526 158.54048157 87.04978943 C158.55367146 84.4235768 158.54494808 81.79797158 158.5348053 79.17175293 C158.53682613 77.34619531 158.53973764 75.52063847 158.54350281 73.69508362 C158.54792462 69.87106635 158.54149897 66.04725941 158.52748108 62.2232666 C158.51037714 57.31799833 158.52023887 52.41322204 158.53819847 47.50797176 C158.54902985 43.73934713 158.54559316 39.9708395 158.53781509 36.20221138 C158.53581193 34.39327499 158.53827645 32.58432802 158.54525375 30.77540398 C158.55285901 28.24959972 158.54127807 25.72459697 158.52455139 23.19885254 C158.53366043 22.07431671 158.53366043 22.07431671 158.54295349 20.92706299 C158.53493879 17.10461702 158.53493879 17.10461702 156.99450111 13.70278835 C154.31286449 11.81455059 152.28795693 12.01677023 149.02528381 12.01345825 C147.74654388 12.00499878 146.46780396 11.99653931 145.15031433 11.98782349 C143.73029964 11.9936566 142.31028619 11.99980112 140.89027405 12.00622559 C139.39717728 12.00216121 137.90408352 11.99682008 136.41099548 11.99029541 C132.35317509 11.97659994 128.29558311 11.98192957 124.23775864 11.99143267 C119.99505234 11.99901775 115.75236586 11.99198686 111.50965881 11.98727417 C104.38421612 11.98181325 97.25886665 11.98901702 90.13343811 12.0032959 C81.89057094 12.01962309 73.64792636 12.01433482 65.40506458 11.99781668 C58.33323413 11.98421137 51.26147077 11.98227746 44.18963146 11.99013269 C39.963598 11.99481448 35.73766923 11.99542023 31.51164246 11.98552322 C27.53893212 11.97686967 23.56650932 11.98284571 19.59383011 12.00020599 C18.13411563 12.0041795 16.67437704 12.00302205 15.21467209 11.996418 C13.22560732 11.98824735 11.2364898 12.00029982 9.24745178 12.01345825 C7.57609413 12.01515487 7.57609413 12.01515487 5.87097168 12.01688576 C3.13735486 12.1813196 3.13735486 12.1813196 1.27823448 13.70278835 Z " fill="#08BCC4" transform="translate(172.86363220214844,138.6055908203125)"/>
<path d="M0 0 C13.61199535 0 20.42284838 0.10937501 32 5 C34.9237082 6.17516038 35.77522195 6.0760597 38.83984375 5.0390625 C39.86207031 4.57242188 40.88429687 4.10578125 41.9375 3.625 C51.85311458 -0.86272443 57.99669162 0 70 0 C70 19.14 70 38.28 70 58 C61.585 58.495 61.585 58.495 53 59 C47.88597015 60.46791598 43.25846142 61.93038706 38.484375 64.19140625 C34.08648629 65.62279456 30.94542622 64.04268551 27 62.0625 C18.72778942 58.9573267 18.72778942 58.9573267 0 58 C0 38.86 0 19.72 0 0 Z " fill="#03C2CB" transform="translate(215,163)"/>
<path d="M0 0 C0.70281758 -0.00467997 1.40563517 -0.00935994 2.12975025 -0.01418173 C4.4905807 -0.02617138 6.85083491 -0.01665939 9.21166992 -0.00723267 C10.90180806 -0.01129662 12.59194355 -0.0166375 14.28207397 -0.02316284 C18.87705854 -0.03686328 23.4718415 -0.03152658 28.06682968 -0.02202559 C32.87007958 -0.01444309 37.67331194 -0.02147067 42.4765625 -0.02618408 C50.54357002 -0.03164575 58.61049521 -0.02443924 66.67749023 -0.01016235 C76.01098001 0.00616495 85.34427321 0.00087673 94.67775822 -0.01564157 C102.68376126 -0.02924472 110.68970504 -0.03118184 118.6957159 -0.02332556 C123.48065858 -0.01864259 128.26550878 -0.01804128 133.05044556 -0.02793503 C137.54844006 -0.03658541 142.04618051 -0.03061823 146.54414749 -0.01325226 C148.19736941 -0.00927707 149.85061262 -0.01043903 151.50382614 -0.01704025 C153.75593427 -0.02520541 156.00722188 -0.01499615 158.25927734 0 C160.15186531 0.00169662 160.15186531 0.00169662 162.08268738 0.00342751 C165.12963867 0.38095093 165.12963867 0.38095093 167.03648853 1.64731121 C168.37467922 3.76956362 168.4999142 4.99848817 168.49040222 7.50013733 C168.49658821 8.7558252 168.49658821 8.7558252 168.50289917 10.03688049 C168.49211334 10.95181778 168.48132751 11.86675507 168.47021484 12.80941772 C168.47065292 13.77545929 168.471091 14.74150085 168.47154236 15.73681641 C168.46944978 18.93480533 168.44609628 22.13227216 168.42260742 25.33016968 C168.41701315 27.54548354 168.41274225 29.7608011 168.40974426 31.97612 C168.39828228 37.8107119 168.36880329 43.64508025 168.33563232 49.47958374 C168.3049607 55.43170141 168.29124514 61.38385516 168.27612305 67.33602905 C168.24393502 79.01776797 168.1927222 90.69934087 168.12963867 102.38095093 C163.17963867 102.38095093 158.22963867 102.38095093 153.12963867 102.38095093 C154.44963867 100.73095093 155.76963867 99.08095093 157.12963867 97.38095093 C157.50677427 94.5583227 157.65791961 92.13343421 157.61547852 89.31771851 C157.62117355 88.12175301 157.62117355 88.12175301 157.62698364 86.90162659 C157.6343716 84.27584037 157.6130376 81.65116938 157.59057617 79.02548218 C157.58819127 77.19896067 157.58728652 75.37243669 157.58779907 73.5459137 C157.58467443 69.72359804 157.56813095 65.90165837 157.54125977 62.07943726 C157.50720813 57.17304575 157.49963339 52.2670658 157.50115013 47.36056995 C157.50060723 43.59198559 157.48965408 39.8234917 157.47514725 36.05493736 C157.46877198 34.24518201 157.46483865 32.43541639 157.46335983 30.62565041 C157.45903859 28.10225438 157.44156556 25.57930113 157.42016602 23.05599976 C157.42152557 21.92842758 157.42152557 21.92842758 157.4229126 20.77807617 C157.50241767 16.62415666 157.50241767 16.62415666 155.12963867 13.38095093 C152.39175512 13.07553074 152.39175512 13.07553074 149.13208008 13.12698364 C147.85326965 13.12134399 146.57445923 13.11570435 145.25689697 13.1098938 C143.83166448 13.11378277 142.40643254 13.11787913 140.98120117 13.12216187 C139.48663156 13.11945309 137.99206329 13.1158928 136.49749756 13.11154175 C132.43146255 13.10240194 128.36552872 13.10596852 124.29949188 13.11229992 C120.05097677 13.1173517 115.80247052 13.11267076 111.55395508 13.10952759 C104.41835977 13.10588554 97.28280583 13.11069329 90.1472168 13.12020874 C81.88905587 13.13109376 73.63099369 13.12756835 65.37283516 13.11655593 C58.29170955 13.10748984 51.21061372 13.10619444 44.12948418 13.11143327 C39.89622249 13.11455672 35.66300727 13.11495208 31.42974854 13.10836029 C27.45054739 13.10259729 23.47147398 13.10656441 19.49228668 13.1181488 C18.0289252 13.12080102 16.56555302 13.12002078 15.10219574 13.11562347 C13.1105334 13.11018891 11.11884766 13.11820032 9.12719727 13.12698364 C8.01073822 13.12773769 6.89427917 13.12849174 5.74398804 13.12926865 C2.96993199 13.11659553 2.96993199 13.11659553 1.12963867 15.38095093 C0.92076771 17.97393742 0.83598248 20.46103677 0.83911133 23.05599976 C0.8323941 23.84805313 0.82567688 24.64010651 0.8187561 25.4561615 C0.79970593 28.08349831 0.79584811 30.71058053 0.79370117 33.33798218 C0.78727705 35.16160692 0.78054898 36.98523061 0.77352905 38.80885315 C0.76153798 42.63637684 0.75785 46.46381016 0.7590332 50.29135132 C0.75923625 55.19430731 0.73195685 60.09668275 0.69748878 64.99950123 C0.67523952 68.76820023 0.67119509 72.53675924 0.67225266 76.3055172 C0.66989284 78.11282028 0.66104794 79.920127 0.64558792 81.72736549 C0.62597177 84.25789469 0.63174867 86.78716871 0.64379883 89.31771851 C0.63255981 90.0633606 0.6213208 90.80900269 0.60974121 91.57723999 C0.67570803 97.03407362 1.40043346 97.71944441 5.12963867 102.38095093 C0.17963867 102.38095093 -4.77036133 102.38095093 -9.87036133 102.38095093 C-9.93978766 89.52480087 -9.99313513 76.6686952 -10.02579784 63.81239605 C-10.04147212 57.84307433 -10.06274266 51.87388061 -10.09667969 45.90463257 C-10.12921011 40.14694264 -10.14720106 34.38937604 -10.15499306 28.63160133 C-10.16054792 26.43189362 -10.17139482 24.23219286 -10.1875515 22.03253746 C-10.20924161 18.95801434 -10.21233176 15.8840047 -10.2109375 12.80941772 C-10.22172333 11.89448044 -10.23250916 10.97954315 -10.24362183 10.03688049 C-10.23949783 9.19975525 -10.23537384 8.36263 -10.23112488 7.50013733 C-10.23389026 6.77284266 -10.23665564 6.045548 -10.23950481 5.2962141 C-9.87036133 3.38095093 -9.87036133 3.38095093 -8.77721119 1.64731121 C-5.88144526 -0.27579928 -3.45162559 0.00309422 0 0 Z " fill="#050505" transform="translate(172.870361328125,138.61904907226563)"/>
<path d="M0 0 C4.71829884 2.76257274 8.2528418 6.09552736 10.7265625 11.04296875 C11.45869077 17.84130271 11.52979032 23.784451 7.328125 29.41796875 C2.90300211 33.90784953 -1.67384863 35.27233445 -7.8984375 35.54296875 C-13.57918661 35.30757859 -16.74973219 33.67669936 -20.70703125 29.546875 C-24.93748546 24.7411749 -25.69989378 20.88536988 -25.609375 14.67578125 C-24.94039073 9.43281149 -22.35237499 5.93752154 -18.51171875 2.4375 C-12.84768467 -1.66404192 -6.54774453 -2.75635294 0 0 Z " fill="#0A0A0A" transform="translate(320.2734375,286.95703125)"/>
<path d="M0 0 C2.805 -0.0825 5.61 -0.165 8.5 -0.25 C9.8003418 -0.30462402 9.8003418 -0.30462402 11.12695312 -0.36035156 C17.76174574 -0.45358754 22.96859571 1.16437391 27.875 5.75390625 C31.3636074 11.36232717 32.15770428 16.4807964 31 23 C28.89426304 28.78594696 25.75379686 31.62177469 20.2734375 34.21704102 C16.35703164 35.56582899 12.59397376 35.42197734 8.5 35.25 C4.2925 35.12625 4.2925 35.12625 0 35 C0 23.45 0 11.9 0 0 Z " fill="#060606" transform="translate(369,287)"/>
<path d="M0 0 C3.01125 -0.0825 6.0225 -0.165 9.125 -0.25 C10.06230957 -0.28641602 10.99961914 -0.32283203 11.96533203 -0.36035156 C17.63039899 -0.43516182 20.67553897 0.26963425 25 4 C26.73658429 7.47316857 26.60094854 11.21141136 26 15 C23.625 18.0625 23.625 18.0625 21 20 C20.34 20 19.68 20 19 20 C19.40992188 20.74765625 19.81984375 21.4953125 20.2421875 22.265625 C20.78101563 23.25046875 21.31984375 24.2353125 21.875 25.25 C22.40867187 26.22453125 22.94234375 27.1990625 23.4921875 28.203125 C24.70205428 30.44733384 25.85980257 32.71960514 27 35 C24.03 35 21.06 35 18 35 C17.29423828 33.60974609 17.29423828 33.60974609 16.57421875 32.19140625 C15.9458212 30.98150649 15.31688694 29.77188538 14.6875 28.5625 C14.2244043 27.64500977 14.2244043 27.64500977 13.75195312 26.70898438 C11.81806145 22.83641386 11.81806145 22.83641386 8 21 C8 25.62 8 30.24 8 35 C5.36 35 2.72 35 0 35 C0 23.45 0 11.9 0 0 Z " fill="#101010" transform="translate(336,287)"/>
<path d="M0 0 C2.866875 -0.061875 5.73375 -0.12375 8.6875 -0.1875 C10.02880981 -0.22846802 10.02880981 -0.22846802 11.3972168 -0.27026367 C17.22419078 -0.33103619 20.41037861 0.75566146 24.875 4.625 C26.67988758 8.43531822 26.09330024 12.00101589 25 16 C23.125 18.5625 23.125 18.5625 21 20 C20.01 20 19.02 20 18 20 C18.5775 20.91523438 19.155 21.83046875 19.75 22.7734375 C20.5002341 23.97381205 21.25022133 25.17434092 22 26.375 C22.3815625 26.97828125 22.763125 27.5815625 23.15625 28.203125 C26 32.7734375 26 32.7734375 26 35 C20.99771913 36.05311176 20.99771913 36.05311176 18 35 C14.96536725 31.22230764 11 26.01498142 11 21 C9.68 21 8.36 21 7 21 C7 25.62 7 30.24 7 35 C4.69 35 2.38 35 0 35 C0 23.45 0 11.9 0 0 Z " fill="#020202" transform="translate(188,287)"/>
<path d="M0 0 C2.31 0 4.62 0 7 0 C7 11.88 7 23.76 7 36 C-1 36 -1 36 -3.19335938 34.07226562 C-4.01030273 32.75258789 -4.01030273 32.75258789 -4.84375 31.40625 C-5.44960937 30.45878906 -6.05546875 29.51132812 -6.6796875 28.53515625 C-7.28039062 27.53355469 -7.88109375 26.53195312 -8.5 25.5 C-9.44746094 23.99759766 -9.44746094 23.99759766 -10.4140625 22.46484375 C-11.96817669 19.99238935 -13.48752028 17.49814066 -15 15 C-15.33 21.93 -15.66 28.86 -16 36 C-18.31 36 -20.62 36 -23 36 C-23 24.45 -23 12.9 -23 1 C-16 1 -16 1 -14.06640625 2.765625 C-13.57011719 3.58546875 -13.07382813 4.4053125 -12.5625 5.25 C-11.9953125 6.14976562 -11.428125 7.04953125 -10.84375 7.9765625 C-10.2353125 8.97429687 -9.626875 9.97203125 -9 11 C-7.53938515 13.22113283 -6.04921307 15.42110492 -4.5625 17.625 C-3.386875 19.39875 -2.21125 21.1725 -1 23 C-0.67 15.41 -0.34 7.82 0 0 Z " fill="#0B0B0B" transform="translate(244,286)"/>
<path d="M0 0 C1.23556641 0.01740234 1.23556641 0.01740234 2.49609375 0.03515625 C3.32238281 0.04417969 4.14867187 0.05320312 5 0.0625 C5.63808594 0.07410156 6.27617187 0.08570313 6.93359375 0.09765625 C13.671875 18.06640625 13.671875 18.06640625 14.84228516 21.19921875 C15.51640959 22.98964499 16.19921234 24.77686361 16.89599609 26.55859375 C18.06401158 29.55794216 18.93359375 31.84705796 18.93359375 35.09765625 C16.62359375 35.09765625 14.31359375 35.09765625 11.93359375 35.09765625 C10.47296525 32.45026709 9.93359375 31.20317291 9.93359375 28.09765625 C4.98359375 28.09765625 0.03359375 28.09765625 -5.06640625 28.09765625 C-6.05640625 31.56265625 -6.05640625 31.56265625 -7.06640625 35.09765625 C-9.37640625 35.09765625 -11.68640625 35.09765625 -14.06640625 35.09765625 C-12.5883228 27.47300722 -10.17519523 20.38145526 -7.50390625 13.09765625 C-7.09205078 11.95425781 -6.68019531 10.81085938 -6.25585938 9.6328125 C-2.80481373 0.13255263 -2.80481373 0.13255263 0 0 Z " fill="#080808" transform="translate(164.06640625,286.90234375)"/>
<path d="M0 0 C3.54668218 2.09547094 6.7146352 4.30136677 8.69140625 8.0078125 C8.69140625 8.9978125 8.69140625 9.9878125 8.69140625 11.0078125 C3.37544534 11.36220989 3.37544534 11.36220989 0.69140625 11.0078125 C0.05203125 10.3478125 -0.58734375 9.6878125 -1.24609375 9.0078125 C-3.65065798 6.67611386 -4.48807743 6.58643852 -7.74609375 6.3828125 C-11.53800667 6.57053096 -12.25590172 6.9647986 -15.37109375 9.5078125 C-17.47979552 12.61229011 -17.97753189 15.32738007 -17.7421875 19.04296875 C-17.02748302 22.28167466 -15.39573172 24.49096965 -13.30859375 27.0078125 C-9.76808397 28.77806739 -5.78249505 28.20174688 -1.93359375 27.6953125 C-1.39734375 27.4684375 -0.86109375 27.2415625 -0.30859375 27.0078125 C0.02140625 26.0178125 0.35140625 25.0278125 0.69140625 24.0078125 C3.33140625 24.0078125 5.97140625 24.0078125 8.69140625 24.0078125 C7.15189941 28.62633303 5.10042431 31.52411263 0.921875 34.09765625 C-4.05293203 36.12765631 -10.41591282 35.91209641 -15.5078125 34.3203125 C-20.71179094 31.61108294 -23.4930073 27.45457184 -25.30859375 22.0078125 C-26.08491256 15.7639912 -25.65756231 10.93912622 -21.9140625 5.76953125 C-16.03592874 -0.68068365 -8.37582208 -3.5997611 0 0 Z " fill="#0C0C0C" transform="translate(281.30859375,286.9921875)"/>
<path d="M0 0 C6.6 0 13.2 0 20 0 C20 1.65 20 3.3 20 5 C15.71 5 11.42 5 7 5 C7 7.97 7 10.94 7 14 C10.96 14 14.92 14 19 14 C19 15.98 19 17.96 19 20 C15.04 20 11.08 20 7 20 C7 22.97 7 25.94 7 29 C11.29 29 15.58 29 20 29 C20 30.98 20 32.96 20 35 C13.4 35 6.8 35 0 35 C0 23.45 0 11.9 0 0 Z " fill="#070707" transform="translate(125,287)"/>
<path d="M0 0 C3.55410006 0.86483101 5.21403929 2.68489799 7.34375 5.5703125 C8.94174033 8.76629315 8.71148555 12.09354006 8.34375 15.5703125 C6.5851631 19.73538674 4.49173495 21.77913718 0.34375 23.5703125 C-3.82699177 24.09165522 -5.8750026 24.05642199 -9.46875 21.8203125 C-12.83754821 18.35526291 -13.52013418 16.6081956 -14.15625 11.7578125 C-14.01265414 7.50577955 -12.5696843 4.90465301 -9.63671875 1.8671875 C-6.47059954 -0.20608977 -3.70888685 -0.25694096 0 0 Z " fill="#F7F7F7" transform="translate(315.65625,292.4296875)"/>
<path d="M0 0 C1.65 0 3.3 0 5 0 C5 19.14 5 38.28 5 58 C-6.22 58 -17.44 58 -29 58 C-24.40612499 53.40612499 -15.83657396 52.80660819 -9.5625 52.75 C-6.15684438 52.81915037 -3.42508431 53.31498314 0 54 C0 36.18 0 18.36 0 0 Z " fill="#161616" transform="translate(287,170)"/>
<path d="M0 0 C1.65 0 3.3 0 5 0 C5 17.82 5 35.64 5 54 C6.98 53.505 6.98 53.505 9 53 C17.9017268 52.07965197 25.62562188 54.26151723 34 57 C34 57.33 34 57.66 34 58 C22.78 58 11.56 58 0 58 C0 38.86 0 19.72 0 0 Z " fill="#151515" transform="translate(208,170)"/>
<path d="M0 0 C10 0 10 0 13.5625 2.375 C16.890033 5.95849708 17.34775723 7.97978933 17.28515625 12.8984375 C16.81849096 16.33769673 15.21874413 18.41146518 13 21 C9 23 9 23 0 23 C0 15.41 0 7.82 0 0 Z " fill="#F9F9F9" transform="translate(376,293)"/>
<path d="M0 0 C2.31 0 4.62 0 7 0 C7 9.9 7 19.8 7 30 C10.63 30 14.26 30 18 30 C18 31.98 18 33.96 18 36 C12.06 36 6.12 36 0 36 C0 24.12 0 12.24 0 0 Z " fill="#101010" transform="translate(102,286)"/>
<path d="M0 0 C7.23809524 -0.36190476 7.23809524 -0.36190476 10.5 1.1875 C12 3 12 3 12.4375 5.5 C11.91986863 8.45789355 11.35154142 9.19472373 9 11 C6.73828125 11.29296875 6.73828125 11.29296875 4.3125 11.1875 C2.889375 11.125625 1.46625 11.06375 0 11 C0 7.37 0 3.74 0 0 Z " fill="#EBEBEB" transform="translate(195,292)"/>
<path d="M0 0 C6.8359375 -0.1953125 6.8359375 -0.1953125 9 0 C11 2 11 2 11.3125 5 C11.1578125 6.485 11.1578125 6.485 11 8 C7.91111478 10.05925681 7.29064073 10.2390374 3.8125 10.125 C1.9253125 10.063125 1.9253125 10.063125 0 10 C0 6.7 0 3.4 0 0 Z " fill="#F9F9F9" transform="translate(344,293)"/>
<path d="M0 0 C2.17186421 2.17186421 2.6793248 3.49976531 3.625 6.375 C3.88539063 7.14585937 4.14578125 7.91671875 4.4140625 8.7109375 C5 11 5 11 5 15 C1.7 15 -1.6 15 -5 15 C-1.85714286 4.28571429 -1.85714286 4.28571429 0 0 Z " fill="#DCDCDC" transform="translate(166,295)"/>
<path d="M0 0 C4.24529056 0.39308246 7.44009487 1.68426339 11.375 3.3125 C10.385 4.7975 10.385 4.7975 9.375 6.3125 C4.755 4.9925 0.135 3.6725 -4.625 2.3125 C-2.625 0.3125 -2.625 0.3125 0 0 Z " fill="#DEE7E7" transform="translate(232.625,221.6875)"/>
<path d="M0 0 C0 0.66 0 1.32 0 2 C-2.31 2.33 -4.62 2.66 -7 3 C-7.33 2.01 -7.66 1.02 -8 0 C-4.94736336 -0.98120464 -3.05263664 -0.98120464 0 0 Z " fill="#D2E3E4" transform="translate(272,222)"/>
</svg>
